<svg width="19" height="20" viewBox="0 0 19 20" fill="none" xmlns="http://www.w3.org/2000/svg">
<path id="Mask" fill-rule="evenodd" clip-rule="evenodd" d="M4.83337 5C4.83337 2.2 7.03337 0 9.83337 0C12.6334 0 14.8334 2.2 14.8334 5C14.8334 7.8 12.6334 10 9.83337 10C7.03337 10 4.83337 7.8 4.83337 5ZM18.8334 17V19C18.8334 19.6 18.4334 20 17.8334 20C17.2334 20 16.8334 19.6 16.8334 19V17C16.8334 15.3 15.5334 14 13.8334 14H5.83337C4.13337 14 2.83337 15.3 2.83337 17V19C2.83337 19.6 2.43337 20 1.83337 20C1.23337 20 0.833374 19.6 0.833374 19V17C0.833374 14.2 3.03337 12 5.83337 12H13.8334C16.6334 12 18.8334 14.2 18.8334 17ZM9.83337 8C8.13337 8 6.83337 6.7 6.83337 5C6.83337 3.3 8.13337 2 9.83337 2C11.5334 2 12.8334 3.3 12.8334 5C12.8334 6.7 11.5334 8 9.83337 8Z" fill="black"/>
</svg>
