<svg width="23" height="24" viewBox="0 0 23 24" fill="none" xmlns="http://www.w3.org/2000/svg">
<path id="Mask" fill-rule="evenodd" clip-rule="evenodd" d="M12.9666 0.599988L20.9666 4.59999C22.0666 5.09999 22.6666 6.09999 22.6666 7.19999V16.7C22.6666 17.9 21.9666 18.9 20.9666 19.4L12.9666 23.4C12.5666 23.6 12.1666 23.7 11.6666 23.7C11.2666 23.7 10.7666 23.6 10.3666 23.4L2.36663 19.4C1.26663 18.9 0.666626 17.8 0.666626 16.7V7.19999C0.666626 6.09999 1.26663 5.09999 2.26663 4.59999L10.2666 0.599988C11.1666 0.199988 12.1666 0.199988 12.9666 0.599988ZM11.6666 2.19999C11.5666 2.19999 11.3666 2.19999 11.2666 2.29999L3.86663 5.99999L11.6666 9.89999L19.4666 5.99999L12.0666 2.29999C11.9666 2.19999 11.8666 2.19999 11.6666 2.19999ZM3.16663 17.7C2.86663 17.5 2.66663 17.1 2.66663 16.8V7.59999L10.6666 11.6V21.4L3.16663 17.7ZM12.6666 21.4L20.0666 17.7C20.4666 17.5 20.6666 17.2 20.6666 16.8V7.59999L12.6666 11.6V21.4Z" fill="black"/>
</svg>
