<svg width="15" height="24" viewBox="0 0 15 24" fill="none" xmlns="http://www.w3.org/2000/svg">
<path id="Shape" fill-rule="evenodd" clip-rule="evenodd" d="M10 11H8.5V6H12.5C13.1 6 13.5 5.6 13.5 5C13.5 4.4 13.1 4 12.5 4H8.5V1C8.5 0.4 8.1 0 7.5 0C6.9 0 6.5 0.4 6.5 1V4H5C2.5 4 0.5 6 0.5 8.5C0.5 11 2.5 13 5 13H6.5V18H1.5C0.9 18 0.5 18.4 0.5 19C0.5 19.6 0.9 20 1.5 20H6.5V23C6.5 23.6 6.9 24 7.5 24C8.1 24 8.5 23.6 8.5 23V20H10C12.5 20 14.5 18 14.5 15.5C14.5 13 12.5 11 10 11ZM5 11C3.6 11 2.5 9.9 2.5 8.5C2.5 7.1 3.6 6 5 6H6.5V11H5ZM8.5 18H10C11.4 18 12.5 16.9 12.5 15.5C12.5 14.1 11.4 13 10 13H8.5V18Z" fill="black"/>
</svg>
